<mxfile host="app.diagrams.net" modified="2023-01-31T16:13:33.281Z" agent="5.0 (Macintosh; Intel Mac OS X 10_15_7) AppleWebKit/537.36 (KHTML, like Gecko) Chrome/109.0.0.0 Safari/537.36" etag="SgahJvSJf5mtya98dJWw" version="20.8.13" type="github">
  <diagram name="Page-1" id="R6mimwNBXcnvcJN3qarm">
    <mxGraphModel dx="1272" dy="1844" grid="1" gridSize="10" guides="1" tooltips="1" connect="1" arrows="1" fold="1" page="1" pageScale="1" pageWidth="850" pageHeight="1100" math="0" shadow="0">
      <root>
        <mxCell id="0" />
        <mxCell id="1" parent="0" />
        <object label="&lt;font style=&quot;font-size: 15px;&quot;&gt;Road Repair Tracking System&lt;/font&gt;" id="44IZnCSOye2J6gwwxO6d-1">
          <mxCell style="rounded=0;whiteSpace=wrap;html=1;labelBorderColor=none;labelBackgroundColor=none;" parent="1" vertex="1">
            <mxGeometry x="365" width="145" height="60" as="geometry" />
          </mxCell>
        </object>
        <mxCell id="44IZnCSOye2J6gwwxO6d-2" value="Complaint" style="rounded=0;whiteSpace=wrap;html=1;labelBackgroundColor=none;labelBorderColor=none;fontSize=15;" parent="1" vertex="1">
          <mxGeometry x="110" y="160" width="120" height="60" as="geometry" />
        </mxCell>
        <mxCell id="44IZnCSOye2J6gwwxO6d-3" value="Repair" style="rounded=0;whiteSpace=wrap;html=1;labelBackgroundColor=none;labelBorderColor=none;fontSize=15;" parent="1" vertex="1">
          <mxGeometry x="460" y="160" width="120" height="60" as="geometry" />
        </mxCell>
        <mxCell id="44IZnCSOye2J6gwwxO6d-4" value="Generate Stats" style="rounded=0;whiteSpace=wrap;html=1;labelBackgroundColor=none;labelBorderColor=none;fontSize=15;" parent="1" vertex="1">
          <mxGeometry x="1000" y="170" width="90" height="60" as="geometry" />
        </mxCell>
        <mxCell id="44IZnCSOye2J6gwwxO6d-5" value="Add Complaint" style="rounded=0;whiteSpace=wrap;html=1;labelBackgroundColor=none;labelBorderColor=none;fontSize=15;" parent="1" vertex="1">
          <mxGeometry x="20" y="300" width="80" height="80" as="geometry" />
        </mxCell>
        <mxCell id="44IZnCSOye2J6gwwxO6d-6" value="Generate Complaint ID" style="rounded=0;whiteSpace=wrap;html=1;labelBackgroundColor=none;labelBorderColor=none;fontSize=15;" parent="1" vertex="1">
          <mxGeometry x="120" y="300" width="80" height="80" as="geometry" />
        </mxCell>
        <mxCell id="44IZnCSOye2J6gwwxO6d-7" value="Make&lt;br&gt;Area-Wise&lt;br&gt;List" style="rounded=0;whiteSpace=wrap;html=1;labelBackgroundColor=none;labelBorderColor=none;fontSize=15;" parent="1" vertex="1">
          <mxGeometry x="220" y="300" width="80" height="80" as="geometry" />
        </mxCell>
        <mxCell id="44IZnCSOye2J6gwwxO6d-9" value="&lt;div&gt;Assessment&lt;/div&gt;" style="rounded=0;whiteSpace=wrap;html=1;labelBackgroundColor=none;labelBorderColor=none;fontSize=15;" parent="1" vertex="1">
          <mxGeometry x="380" y="315" width="80" height="80" as="geometry" />
        </mxCell>
        <mxCell id="44IZnCSOye2J6gwwxO6d-10" value="Optimal Scheduler" style="rounded=0;whiteSpace=wrap;html=1;labelBackgroundColor=none;labelBorderColor=none;fontSize=15;" parent="1" vertex="1">
          <mxGeometry x="490" y="315" width="70" height="80" as="geometry" />
        </mxCell>
        <mxCell id="44IZnCSOye2J6gwwxO6d-11" value="" style="endArrow=classic;html=1;rounded=0;fontSize=15;exitX=0.25;exitY=0;exitDx=0;exitDy=0;entryX=0.075;entryY=1.033;entryDx=0;entryDy=0;entryPerimeter=0;" parent="1" source="44IZnCSOye2J6gwwxO6d-5" target="44IZnCSOye2J6gwwxO6d-2" edge="1">
          <mxGeometry width="50" height="50" relative="1" as="geometry">
            <mxPoint x="50" y="280" as="sourcePoint" />
            <mxPoint x="120" y="240" as="targetPoint" />
          </mxGeometry>
        </mxCell>
        <mxCell id="44IZnCSOye2J6gwwxO6d-13" value="Area, Details" style="text;html=1;align=center;verticalAlign=middle;resizable=0;points=[];autosize=1;strokeColor=none;fillColor=none;fontSize=11;rotation=-80;" parent="1" vertex="1">
          <mxGeometry x="140" y="245" width="90" height="30" as="geometry" />
        </mxCell>
        <mxCell id="44IZnCSOye2J6gwwxO6d-18" value="Complaint ID" style="text;html=1;align=center;verticalAlign=middle;resizable=0;points=[];autosize=1;strokeColor=none;fillColor=none;fontSize=11;rotation=-85;" parent="1" vertex="1">
          <mxGeometry x="110" y="240" width="90" height="30" as="geometry" />
        </mxCell>
        <mxCell id="44IZnCSOye2J6gwwxO6d-19" value="" style="endArrow=classic;html=1;rounded=0;fontSize=11;exitX=0.5;exitY=0;exitDx=0;exitDy=0;" parent="1" source="44IZnCSOye2J6gwwxO6d-6" edge="1">
          <mxGeometry width="50" height="50" relative="1" as="geometry">
            <mxPoint x="400" y="350" as="sourcePoint" />
            <mxPoint x="170" y="220" as="targetPoint" />
          </mxGeometry>
        </mxCell>
        <mxCell id="44IZnCSOye2J6gwwxO6d-23" value="" style="endArrow=classic;html=1;rounded=0;fontSize=11;entryX=0.95;entryY=0.983;entryDx=0;entryDy=0;entryPerimeter=0;exitX=0.65;exitY=-0.012;exitDx=0;exitDy=0;exitPerimeter=0;" parent="1" source="44IZnCSOye2J6gwwxO6d-7" target="44IZnCSOye2J6gwwxO6d-2" edge="1">
          <mxGeometry width="50" height="50" relative="1" as="geometry">
            <mxPoint x="400" y="350" as="sourcePoint" />
            <mxPoint x="350" y="280" as="targetPoint" />
          </mxGeometry>
        </mxCell>
        <mxCell id="44IZnCSOye2J6gwwxO6d-24" value="Complaint&lt;br&gt;List" style="text;html=1;align=center;verticalAlign=middle;resizable=0;points=[];autosize=1;strokeColor=none;fillColor=none;fontSize=11;rotation=60;" parent="1" vertex="1">
          <mxGeometry x="225" y="235" width="70" height="40" as="geometry" />
        </mxCell>
        <mxCell id="44IZnCSOye2J6gwwxO6d-25" value="Area, Details" style="text;html=1;align=center;verticalAlign=middle;resizable=0;points=[];autosize=1;strokeColor=none;fillColor=none;fontSize=11;rotation=-45;" parent="1" vertex="1">
          <mxGeometry x="25" y="240" width="90" height="30" as="geometry" />
        </mxCell>
        <mxCell id="44IZnCSOye2J6gwwxO6d-30" value="" style="endArrow=classic;html=1;rounded=0;fontSize=15;entryX=0;entryY=1;entryDx=0;entryDy=0;exitX=0.5;exitY=0;exitDx=0;exitDy=0;" parent="1" source="44IZnCSOye2J6gwwxO6d-9" target="44IZnCSOye2J6gwwxO6d-3" edge="1">
          <mxGeometry width="50" height="50" relative="1" as="geometry">
            <mxPoint x="450" y="300" as="sourcePoint" />
            <mxPoint x="500" y="250" as="targetPoint" />
          </mxGeometry>
        </mxCell>
        <mxCell id="44IZnCSOye2J6gwwxO6d-31" value="" style="endArrow=classic;html=1;rounded=0;fontSize=15;exitX=0.104;exitY=1.008;exitDx=0;exitDy=0;exitPerimeter=0;entryX=0.613;entryY=-0.025;entryDx=0;entryDy=0;entryPerimeter=0;" parent="1" source="44IZnCSOye2J6gwwxO6d-3" target="44IZnCSOye2J6gwwxO6d-9" edge="1">
          <mxGeometry width="50" height="50" relative="1" as="geometry">
            <mxPoint x="510" y="250" as="sourcePoint" />
            <mxPoint x="460" y="300" as="targetPoint" />
          </mxGeometry>
        </mxCell>
        <mxCell id="44IZnCSOye2J6gwwxO6d-32" value="Schedule" style="text;html=1;align=center;verticalAlign=middle;resizable=0;points=[];autosize=1;strokeColor=none;fillColor=none;fontSize=11;rotation=-80;" parent="1" vertex="1">
          <mxGeometry x="460" y="265" width="70" height="30" as="geometry" />
        </mxCell>
        <mxCell id="44IZnCSOye2J6gwwxO6d-33" value="&lt;div&gt;Complaint&amp;nbsp;&lt;/div&gt;&lt;div&gt;&lt;span style=&quot;background-color: initial;&quot;&gt;Details,&lt;/span&gt;&lt;/div&gt;&lt;div&gt;&lt;span style=&quot;background-color: initial;&quot;&gt;&amp;nbsp;Priority&lt;/span&gt;&lt;/div&gt;" style="text;html=1;align=center;verticalAlign=middle;resizable=0;points=[];autosize=1;strokeColor=none;fillColor=none;fontSize=11;rotation=-88;" parent="1" vertex="1">
          <mxGeometry x="500" y="250" width="80" height="50" as="geometry" />
        </mxCell>
        <mxCell id="44IZnCSOye2J6gwwxO6d-34" value="" style="endArrow=classic;html=1;rounded=0;fontSize=11;entryX=0.413;entryY=1.008;entryDx=0;entryDy=0;entryPerimeter=0;exitX=0.086;exitY=0.949;exitDx=0;exitDy=0;exitPerimeter=0;" parent="1" source="44IZnCSOye2J6gwwxO6d-32" target="44IZnCSOye2J6gwwxO6d-3" edge="1">
          <mxGeometry width="50" height="50" relative="1" as="geometry">
            <mxPoint x="540" y="300" as="sourcePoint" />
            <mxPoint x="590" y="250" as="targetPoint" />
          </mxGeometry>
        </mxCell>
        <mxCell id="44IZnCSOye2J6gwwxO6d-35" value="" style="endArrow=classic;html=1;rounded=0;fontSize=11;exitX=0.5;exitY=1;exitDx=0;exitDy=0;entryX=0.379;entryY=0.019;entryDx=0;entryDy=0;entryPerimeter=0;" parent="1" source="44IZnCSOye2J6gwwxO6d-3" target="44IZnCSOye2J6gwwxO6d-10" edge="1">
          <mxGeometry width="50" height="50" relative="1" as="geometry">
            <mxPoint x="550" y="230" as="sourcePoint" />
            <mxPoint x="520" y="310" as="targetPoint" />
          </mxGeometry>
        </mxCell>
        <mxCell id="44IZnCSOye2J6gwwxO6d-36" value="&lt;div&gt;Area-wise&lt;/div&gt;&lt;div&gt;Complaints&lt;/div&gt;&lt;div&gt;&lt;br&gt;&lt;/div&gt;&lt;div&gt;&lt;br&gt;&lt;/div&gt;" style="text;html=1;align=center;verticalAlign=middle;resizable=0;points=[];autosize=1;strokeColor=none;fillColor=none;fontSize=11;rotation=-61;" parent="1" vertex="1">
          <mxGeometry x="430" y="245" width="80" height="70" as="geometry" />
        </mxCell>
        <mxCell id="44IZnCSOye2J6gwwxO6d-38" value="Priority,&lt;br&gt;Resources&lt;br&gt;reqd" style="text;html=1;align=center;verticalAlign=middle;resizable=0;points=[];autosize=1;strokeColor=none;fillColor=none;fontSize=11;rotation=-65;" parent="1" vertex="1">
          <mxGeometry x="377.5" y="245" width="80" height="50" as="geometry" />
        </mxCell>
        <mxCell id="44IZnCSOye2J6gwwxO6d-39" value="&lt;font style=&quot;font-size: 15px;&quot;&gt;Login&lt;/font&gt;" style="rounded=0;whiteSpace=wrap;html=1;labelBackgroundColor=none;labelBorderColor=none;fontSize=11;" parent="1" vertex="1">
          <mxGeometry x="780" y="170" width="120" height="60" as="geometry" />
        </mxCell>
        <mxCell id="44IZnCSOye2J6gwwxO6d-44" value="" style="endArrow=classic;html=1;rounded=0;fontSize=15;exitX=0.5;exitY=0;exitDx=0;exitDy=0;entryX=1;entryY=0.25;entryDx=0;entryDy=0;" parent="1" source="44IZnCSOye2J6gwwxO6d-77" target="44IZnCSOye2J6gwwxO6d-3" edge="1">
          <mxGeometry width="50" height="50" relative="1" as="geometry">
            <mxPoint x="357.5" y="515" as="sourcePoint" />
            <mxPoint x="520" y="180" as="targetPoint" />
          </mxGeometry>
        </mxCell>
        <mxCell id="44IZnCSOye2J6gwwxO6d-46" value="Upd Resources" style="text;html=1;align=center;verticalAlign=middle;resizable=1;points=[];autosize=1;strokeColor=none;fillColor=none;fontSize=11;rotation=45;movable=1;rotatable=1;deletable=1;editable=1;connectable=1;" parent="1" vertex="1">
          <mxGeometry x="605" y="225" width="100" height="30" as="geometry" />
        </mxCell>
        <mxCell id="44IZnCSOye2J6gwwxO6d-53" value="" style="endArrow=classic;html=1;rounded=0;fontSize=11;entryX=0;entryY=0.5;entryDx=0;entryDy=0;exitX=0.5;exitY=0;exitDx=0;exitDy=0;" parent="1" target="44IZnCSOye2J6gwwxO6d-1" edge="1" source="44IZnCSOye2J6gwwxO6d-2">
          <mxGeometry width="50" height="50" relative="1" as="geometry">
            <mxPoint x="210" y="160" as="sourcePoint" />
            <mxPoint x="260" y="110" as="targetPoint" />
          </mxGeometry>
        </mxCell>
        <mxCell id="44IZnCSOye2J6gwwxO6d-55" value="" style="endArrow=classic;html=1;rounded=0;fontSize=11;entryX=0.5;entryY=1;entryDx=0;entryDy=0;exitX=0.125;exitY=-0.05;exitDx=0;exitDy=0;exitPerimeter=0;" parent="1" source="44IZnCSOye2J6gwwxO6d-3" target="44IZnCSOye2J6gwwxO6d-1" edge="1">
          <mxGeometry width="50" height="50" relative="1" as="geometry">
            <mxPoint x="410" y="160" as="sourcePoint" />
            <mxPoint x="440" y="120" as="targetPoint" />
          </mxGeometry>
        </mxCell>
        <mxCell id="44IZnCSOye2J6gwwxO6d-56" value="" style="endArrow=classic;html=1;rounded=0;fontSize=11;exitX=0.75;exitY=1;exitDx=0;exitDy=0;entryX=0.583;entryY=0.017;entryDx=0;entryDy=0;entryPerimeter=0;" parent="1" source="44IZnCSOye2J6gwwxO6d-1" target="44IZnCSOye2J6gwwxO6d-3" edge="1">
          <mxGeometry width="50" height="50" relative="1" as="geometry">
            <mxPoint x="470" y="80" as="sourcePoint" />
            <mxPoint x="420" y="130" as="targetPoint" />
          </mxGeometry>
        </mxCell>
        <mxCell id="44IZnCSOye2J6gwwxO6d-57" value="" style="endArrow=classic;html=1;rounded=0;fontSize=11;entryX=0.75;entryY=0;entryDx=0;entryDy=0;exitX=1;exitY=0.5;exitDx=0;exitDy=0;" parent="1" source="44IZnCSOye2J6gwwxO6d-1" target="44IZnCSOye2J6gwwxO6d-39" edge="1">
          <mxGeometry width="50" height="50" relative="1" as="geometry">
            <mxPoint x="500" y="40" as="sourcePoint" />
            <mxPoint x="550" y="-10" as="targetPoint" />
          </mxGeometry>
        </mxCell>
        <mxCell id="44IZnCSOye2J6gwwxO6d-58" value="" style="endArrow=classic;html=1;rounded=0;fontSize=11;exitX=0.25;exitY=0;exitDx=0;exitDy=0;" parent="1" source="44IZnCSOye2J6gwwxO6d-39" edge="1">
          <mxGeometry width="50" height="50" relative="1" as="geometry">
            <mxPoint x="460" y="110" as="sourcePoint" />
            <mxPoint x="510" y="60" as="targetPoint" />
          </mxGeometry>
        </mxCell>
        <mxCell id="44IZnCSOye2J6gwwxO6d-59" value="" style="endArrow=classic;html=1;rounded=0;fontSize=11;entryX=1;entryY=0;entryDx=0;entryDy=0;exitX=1;exitY=0;exitDx=0;exitDy=0;" parent="1" source="44IZnCSOye2J6gwwxO6d-1" target="44IZnCSOye2J6gwwxO6d-4" edge="1">
          <mxGeometry width="50" height="50" relative="1" as="geometry">
            <mxPoint x="510" y="20" as="sourcePoint" />
            <mxPoint x="560" y="-30" as="targetPoint" />
          </mxGeometry>
        </mxCell>
        <mxCell id="44IZnCSOye2J6gwwxO6d-60" value="" style="endArrow=classic;html=1;rounded=0;fontSize=11;entryX=1;entryY=0.25;entryDx=0;entryDy=0;exitX=0.25;exitY=0;exitDx=0;exitDy=0;" parent="1" source="44IZnCSOye2J6gwwxO6d-4" target="44IZnCSOye2J6gwwxO6d-1" edge="1">
          <mxGeometry width="50" height="50" relative="1" as="geometry">
            <mxPoint x="790" y="160" as="sourcePoint" />
            <mxPoint x="800" y="110" as="targetPoint" />
          </mxGeometry>
        </mxCell>
        <mxCell id="44IZnCSOye2J6gwwxO6d-62" value="Username, Pwd" style="text;html=1;align=center;verticalAlign=middle;resizable=0;points=[];autosize=1;strokeColor=none;fillColor=none;fontSize=11;rotation=20;" parent="1" vertex="1">
          <mxGeometry x="595" y="60" width="100" height="30" as="geometry" />
        </mxCell>
        <mxCell id="44IZnCSOye2J6gwwxO6d-67" value="&lt;div&gt;granted/denied access&lt;/div&gt;&lt;div&gt;&lt;br&gt;&lt;/div&gt;" style="text;html=1;align=center;verticalAlign=middle;resizable=0;points=[];autosize=1;strokeColor=none;fillColor=none;fontSize=11;rotation=20;" parent="1" vertex="1">
          <mxGeometry x="565" y="80" width="130" height="40" as="geometry" />
        </mxCell>
        <mxCell id="44IZnCSOye2J6gwwxO6d-69" value="&lt;div&gt;Complaint&amp;nbsp;&lt;/div&gt;&lt;div&gt;List&lt;/div&gt;" style="text;html=1;align=center;verticalAlign=middle;resizable=0;points=[];autosize=1;strokeColor=none;fillColor=none;fontSize=11;rotation=-35;" parent="1" vertex="1">
          <mxGeometry x="225" y="100" width="80" height="40" as="geometry" />
        </mxCell>
        <mxCell id="44IZnCSOye2J6gwwxO6d-70" value="completed project details" style="text;html=1;align=center;verticalAlign=middle;resizable=0;points=[];autosize=1;strokeColor=none;fillColor=none;fontSize=11;rotation=15;" parent="1" vertex="1">
          <mxGeometry x="670" y="40" width="140" height="30" as="geometry" />
        </mxCell>
        <mxCell id="44IZnCSOye2J6gwwxO6d-71" value="&lt;div&gt;stat charts&lt;/div&gt;&lt;div&gt;&lt;br&gt;&lt;/div&gt;" style="text;html=1;align=center;verticalAlign=middle;resizable=0;points=[];autosize=1;strokeColor=none;fillColor=none;fontSize=11;rotation=15;" parent="1" vertex="1">
          <mxGeometry x="695" y="75" width="70" height="40" as="geometry" />
        </mxCell>
        <mxCell id="44IZnCSOye2J6gwwxO6d-73" value="Area-Wise&lt;br&gt;&amp;nbsp;Complaint&lt;br&gt;List" style="text;html=1;align=center;verticalAlign=middle;resizable=0;points=[];autosize=1;strokeColor=none;fillColor=none;fontSize=11;rotation=60;" parent="1" vertex="1">
          <mxGeometry x="475" y="85" width="80" height="50" as="geometry" />
        </mxCell>
        <mxCell id="44IZnCSOye2J6gwwxO6d-74" value="&lt;div&gt;completed &lt;br&gt;&lt;/div&gt;&lt;div&gt;project&lt;/div&gt;&lt;div&gt;details&lt;br&gt;&lt;/div&gt;" style="text;html=1;align=center;verticalAlign=middle;resizable=0;points=[];autosize=1;strokeColor=none;fillColor=none;fontSize=11;" parent="1" vertex="1">
          <mxGeometry x="390" y="100" width="70" height="50" as="geometry" />
        </mxCell>
        <mxCell id="44IZnCSOye2J6gwwxO6d-77" value="Update Resources" style="whiteSpace=wrap;html=1;aspect=fixed;labelBackgroundColor=none;labelBorderColor=none;fontSize=15;" parent="1" vertex="1">
          <mxGeometry x="680" y="330" width="70" height="70" as="geometry" />
        </mxCell>
        <mxCell id="44IZnCSOye2J6gwwxO6d-83" value="" style="curved=1;endArrow=classic;html=1;rounded=0;fontSize=15;" parent="1" edge="1">
          <mxGeometry width="50" height="50" relative="1" as="geometry">
            <mxPoint x="555" y="235" as="sourcePoint" />
            <mxPoint x="610" y="200" as="targetPoint" />
            <Array as="points">
              <mxPoint x="590" y="250" />
              <mxPoint x="620" y="230" />
            </Array>
          </mxGeometry>
        </mxCell>
        <mxCell id="gvMGW1vqILbDEoVgHIRD-1" value="" style="endArrow=classic;html=1;rounded=0;entryX=0.875;entryY=0;entryDx=0;entryDy=0;exitX=0.75;exitY=1;exitDx=0;exitDy=0;entryPerimeter=0;" edge="1" parent="1" source="44IZnCSOye2J6gwwxO6d-2" target="44IZnCSOye2J6gwwxO6d-6">
          <mxGeometry width="50" height="50" relative="1" as="geometry">
            <mxPoint x="210" y="220" as="sourcePoint" />
            <mxPoint x="310" y="290" as="targetPoint" />
          </mxGeometry>
        </mxCell>
        <mxCell id="gvMGW1vqILbDEoVgHIRD-4" value="&lt;font style=&quot;font-size: 15px;&quot;&gt;Rescheduler&lt;/font&gt;" style="whiteSpace=wrap;html=1;aspect=fixed;" vertex="1" parent="1">
          <mxGeometry x="580" y="320" width="80" height="80" as="geometry" />
        </mxCell>
        <mxCell id="gvMGW1vqILbDEoVgHIRD-10" value="" style="endArrow=classic;html=1;rounded=0;fontSize=15;entryX=0.75;entryY=0;entryDx=0;entryDy=0;exitX=1;exitY=1;exitDx=0;exitDy=0;" edge="1" parent="1" source="44IZnCSOye2J6gwwxO6d-3" target="gvMGW1vqILbDEoVgHIRD-4">
          <mxGeometry width="50" height="50" relative="1" as="geometry">
            <mxPoint x="510" y="220" as="sourcePoint" />
            <mxPoint x="460" y="270" as="targetPoint" />
          </mxGeometry>
        </mxCell>
        <mxCell id="gvMGW1vqILbDEoVgHIRD-11" value="" style="endArrow=classic;html=1;rounded=0;fontSize=15;exitX=0.5;exitY=0;exitDx=0;exitDy=0;entryX=0.85;entryY=1.017;entryDx=0;entryDy=0;entryPerimeter=0;" edge="1" parent="1" source="gvMGW1vqILbDEoVgHIRD-4" target="44IZnCSOye2J6gwwxO6d-3">
          <mxGeometry width="50" height="50" relative="1" as="geometry">
            <mxPoint x="460" y="270" as="sourcePoint" />
            <mxPoint x="510" y="220" as="targetPoint" />
          </mxGeometry>
        </mxCell>
        <mxCell id="gvMGW1vqILbDEoVgHIRD-12" value="Affected&lt;br&gt;Projects&amp;nbsp;" style="whiteSpace=wrap;html=1;aspect=fixed;fontSize=15;" vertex="1" parent="1">
          <mxGeometry x="515" y="470" width="80" height="80" as="geometry" />
        </mxCell>
        <mxCell id="gvMGW1vqILbDEoVgHIRD-13" value="Alter Schedule" style="whiteSpace=wrap;html=1;aspect=fixed;fontSize=15;" vertex="1" parent="1">
          <mxGeometry x="660" y="470" width="80" height="80" as="geometry" />
        </mxCell>
        <mxCell id="gvMGW1vqILbDEoVgHIRD-14" value="" style="endArrow=classic;html=1;rounded=0;fontSize=15;exitX=0.5;exitY=0;exitDx=0;exitDy=0;entryX=0.1;entryY=1.038;entryDx=0;entryDy=0;entryPerimeter=0;" edge="1" parent="1" source="gvMGW1vqILbDEoVgHIRD-12" target="gvMGW1vqILbDEoVgHIRD-4">
          <mxGeometry width="50" height="50" relative="1" as="geometry">
            <mxPoint x="560" y="450" as="sourcePoint" />
            <mxPoint x="610" y="400" as="targetPoint" />
          </mxGeometry>
        </mxCell>
        <mxCell id="gvMGW1vqILbDEoVgHIRD-15" value="" style="endArrow=classic;html=1;rounded=0;fontSize=15;exitX=0.35;exitY=1;exitDx=0;exitDy=0;entryX=0.75;entryY=0;entryDx=0;entryDy=0;exitPerimeter=0;" edge="1" parent="1" source="gvMGW1vqILbDEoVgHIRD-4" target="gvMGW1vqILbDEoVgHIRD-12">
          <mxGeometry width="50" height="50" relative="1" as="geometry">
            <mxPoint x="610" y="400" as="sourcePoint" />
            <mxPoint x="560" y="450" as="targetPoint" />
          </mxGeometry>
        </mxCell>
        <mxCell id="gvMGW1vqILbDEoVgHIRD-16" value="&lt;font style=&quot;font-size: 11px;&quot;&gt;Upd Resource&lt;/font&gt;" style="text;html=1;align=center;verticalAlign=middle;resizable=0;points=[];autosize=1;strokeColor=none;fillColor=none;fontSize=15;rotation=-65;" vertex="1" parent="1">
          <mxGeometry x="560" y="420" width="90" height="30" as="geometry" />
        </mxCell>
        <mxCell id="gvMGW1vqILbDEoVgHIRD-17" value="List of Projects" style="text;html=1;align=center;verticalAlign=middle;resizable=0;points=[];autosize=1;strokeColor=none;fillColor=none;fontSize=11;rotation=-60;" vertex="1" parent="1">
          <mxGeometry x="505" y="420" width="100" height="30" as="geometry" />
        </mxCell>
        <mxCell id="gvMGW1vqILbDEoVgHIRD-18" value="" style="endArrow=classic;html=1;rounded=0;fontSize=11;exitX=1;exitY=1;exitDx=0;exitDy=0;entryX=0.75;entryY=0;entryDx=0;entryDy=0;" edge="1" parent="1" source="gvMGW1vqILbDEoVgHIRD-4" target="gvMGW1vqILbDEoVgHIRD-13">
          <mxGeometry width="50" height="50" relative="1" as="geometry">
            <mxPoint x="660" y="470" as="sourcePoint" />
            <mxPoint x="710" y="420" as="targetPoint" />
          </mxGeometry>
        </mxCell>
        <mxCell id="gvMGW1vqILbDEoVgHIRD-19" value="List Of Projects,&lt;br&gt;Upd Resources" style="text;html=1;align=center;verticalAlign=middle;resizable=0;points=[];autosize=1;strokeColor=none;fillColor=none;fontSize=11;" vertex="1" parent="1">
          <mxGeometry x="680" y="410" width="100" height="40" as="geometry" />
        </mxCell>
        <mxCell id="gvMGW1vqILbDEoVgHIRD-21" value="" style="endArrow=classic;html=1;rounded=0;fontSize=11;exitX=0.5;exitY=0;exitDx=0;exitDy=0;entryX=0.75;entryY=1;entryDx=0;entryDy=0;" edge="1" parent="1" source="gvMGW1vqILbDEoVgHIRD-13" target="gvMGW1vqILbDEoVgHIRD-4">
          <mxGeometry width="50" height="50" relative="1" as="geometry">
            <mxPoint x="460" y="430" as="sourcePoint" />
            <mxPoint x="510" y="380" as="targetPoint" />
          </mxGeometry>
        </mxCell>
        <mxCell id="gvMGW1vqILbDEoVgHIRD-22" value="Altered &lt;br&gt;Schedules" style="text;html=1;align=center;verticalAlign=middle;resizable=0;points=[];autosize=1;strokeColor=none;fillColor=none;fontSize=11;" vertex="1" parent="1">
          <mxGeometry x="620" y="430" width="70" height="40" as="geometry" />
        </mxCell>
        <mxCell id="gvMGW1vqILbDEoVgHIRD-23" value="Upd Resources" style="text;html=1;align=center;verticalAlign=middle;resizable=1;points=[];autosize=1;strokeColor=none;fillColor=none;fontSize=11;rotation=60;movable=1;rotatable=1;deletable=1;editable=1;connectable=1;" vertex="1" parent="1">
          <mxGeometry x="580" y="255" width="100" height="30" as="geometry" />
        </mxCell>
        <mxCell id="gvMGW1vqILbDEoVgHIRD-24" value="Altered&lt;br&gt;&amp;nbsp;Schedules" style="text;html=1;align=center;verticalAlign=middle;resizable=0;points=[];autosize=1;strokeColor=none;fillColor=none;fontSize=11;rotation=60;" vertex="1" parent="1">
          <mxGeometry x="550" y="265" width="80" height="40" as="geometry" />
        </mxCell>
        <mxCell id="gvMGW1vqILbDEoVgHIRD-27" value="" style="endArrow=classic;html=1;rounded=0;fontSize=11;entryX=1;entryY=0;entryDx=0;entryDy=0;exitX=0.614;exitY=-0.028;exitDx=0;exitDy=0;exitPerimeter=0;" edge="1" parent="1" source="gvMGW1vqILbDEoVgHIRD-28" target="44IZnCSOye2J6gwwxO6d-3">
          <mxGeometry width="50" height="50" relative="1" as="geometry">
            <mxPoint x="810" y="330" as="sourcePoint" />
            <mxPoint x="540" y="210" as="targetPoint" />
          </mxGeometry>
        </mxCell>
        <mxCell id="gvMGW1vqILbDEoVgHIRD-28" value="&lt;font style=&quot;font-size: 15px;&quot;&gt;Update&lt;br&gt;Project&lt;br&gt;Completion&lt;br&gt;details&lt;br&gt;&lt;/font&gt;" style="whiteSpace=wrap;html=1;aspect=fixed;fontSize=11;" vertex="1" parent="1">
          <mxGeometry x="770" y="320" width="80" height="80" as="geometry" />
        </mxCell>
        <mxCell id="gvMGW1vqILbDEoVgHIRD-29" value="Project Details&lt;br&gt;Resources Used, Time Taken" style="text;html=1;align=center;verticalAlign=middle;resizable=0;points=[];autosize=1;strokeColor=none;fillColor=none;fontSize=11;rotation=30;" vertex="1" parent="1">
          <mxGeometry x="660" y="225" width="170" height="40" as="geometry" />
        </mxCell>
      </root>
    </mxGraphModel>
  </diagram>
</mxfile>
